<?xml version="1.0" standalone="no"?>
<!DOCTYPE svg PUBLIC "-//W3C//DTD SVG 1.1//EN" "http://www.w3.org/Graphics/SVG/1.1/DTD/svg11.dtd">
<svg xmlns="http://www.w3.org/2000/svg">
<metadata>Generated by Fontastic.me</metadata>
<defs>
<font id="ndflx-sys-icon" horiz-adv-x="512">
<font-face font-family="ndflx-sys-icon" units-per-em="512" ascent="480" descent="-32"/>
<missing-glyph horiz-adv-x="512" />

<glyph glyph-name="all-area" unicode="&#97;" d="M256 277c24 0 43 19 43 43 0 24-19 43-43 43-24 0-43-19-43-43 0-24 19-43 43-43z m-149 36c0 85 65 156 149 156 84 0 149-71 149-156 0-20-6-39-15-57-8-16-18-32-30-47 26-6 48-13 66-22 21-11 43-30 43-56 0-18-10-33-23-43-12-10-29-18-47-25-38-13-88-20-143-20-55 0-105 7-143 20-18 7-35 15-47 25-13 10-23 25-23 43 0 26 22 45 43 56 18 9 40 16 66 22-12 15-22 31-30 47-9 18-15 37-15 57z m149 114c-58 0-107-50-107-114 0-10 4-23 11-39 8-14 18-30 30-45 23-30 50-57 66-72 16 15 43 42 66 72 12 15 22 31 30 45 7 16 11 29 11 39 0 64-49 114-107 114z m-73-256l-1 0c-32-5-58-13-76-22-19-10-21-18-21-18 0 0 0-4 8-10 7-6 18-12 34-17 32-11 78-19 129-19 51 0 97 8 129 19 16 5 27 11 34 17 8 6 8 10 8 10 0 0-2 8-21 18-18 9-44 17-76 22l-1 0c-17-20-34-36-45-46-16-15-40-15-56 0-11 10-28 26-45 46z"/>
<glyph glyph-name="arrow-left" unicode="&#98;" d="M270 349c-4 4-11 4-15 0l-78-78c-8-8-8-22 0-30l78-78c4-4 11-4 15 0l15 15c4 4 4 11 0 15l-55 55c-4 5-4 11 0 16l55 55c4 4 4 11 0 15z"/>
<glyph glyph-name="arrow-right" unicode="&#99;" d="M242 349c4 4 11 4 15 0l78-78c8-8 8-22 0-30l-78-78c-4-4-11-4-15 0l-15 15c-4 4-4 11 0 15l55 55c4 5 4 11 0 16l-55 55c-4 4-4 11 0 15z"/>
<glyph glyph-name="attach" unicode="&#100;" d="M192 363c0 59 48 106 107 106 59 0 106-47 106-106l0-171c0-82-67-149-149-149-82 0-149 67-149 149l0 171c0 11 9 21 21 21 12 0 21-10 21-21l0-171c0-59 48-107 107-107 59 0 107 48 107 107l0 171c0 35-29 64-64 64-36 0-64-29-64-64l0-171c0-12 9-21 21-21 12 0 21 9 21 21l0 171c0 11 10 21 22 21 11 0 21-10 21-21l0-171c0-35-29-64-64-64-35 0-64 29-64 64z"/>
<glyph glyph-name="attach-cam" unicode="&#101;" d="M43 384c0 35 28 64 64 64l170 0c36 0 64-29 64-64l0-37 87 69c17 14 41 2 41-20l0-195c0-22-24-34-41-20l-87 69 0-37c0-35-28-64-64-64l-85 0 0-64c0-11-10-21-21-21-12 0-22 10-22 21l0 64-42 0c-36 0-64 29-64 64z m234-192c12 0 22 10 22 21l0 171c0 12-10 21-22 21l-170 0c-12 0-22-9-22-21l0-171c0-11 10-21 22-21z m150 169l-64-51 0-22 64-52z"/>
<glyph glyph-name="back" unicode="&#102;" d="M250 369c8 8 8 22 0 30-9 8-22 8-30 0l-128-128c-9-8-9-22 0-30l128-128c8-8 21-8 30 0 8 8 8 22 0 30l-92 92 247 0c12 0 22 9 22 21 0 12-10 21-22 21l-247 0z"/>
<glyph glyph-name="calendar" unicode="&#103;" d="M363 405l-43 0c0 12-10 22-21 22-12 0-22-10-22-22l-42 0c0 12-10 22-22 22-11 0-21-10-21-22l-43 0c-23 0-42-19-42-42l0-214c0-23 19-42 42-42l214 0c23 0 42 19 42 42l0 214c0 23-19 42-42 42z m0-256l-214 0 0 107 214 0z m0 150l-214 0 0 64 43 0c0-12 10-22 21-22 12 0 22 10 22 22l42 0c0-12 10-22 22-22 11 0 21 10 21 22l43 0z"/>
<glyph glyph-name="calibrate" unicode="&#104;" d="M107 341l153 0c8-25 32-42 60-42 28 0 52 17 60 42l25 0c12 0 22 10 22 22 0 11-10 21-22 21l-25 0c-8 25-32 43-60 43-28 0-52-18-60-43l-153 0c-12 0-22-10-22-21 0-12 10-22 22-22z m213 43c12 0 21-10 21-21 0-12-9-22-21-22-12 0-21 10-21 22 0 11 9 21 21 21z m85-107l-153 0c-8 25-32 43-60 43-28 0-52-18-60-43l-25 0c-12 0-22-9-22-21 0-12 10-21 22-21l25 0c8-25 32-43 60-43 28 0 52 18 60 43l153 0c12 0 22 9 22 21 0 12-10 21-22 21z m-213-42c-12 0-21 9-21 21 0 12 9 21 21 21 12 0 21-9 21-21 0-12-9-21-21-21z m213-64l-25 0c-8 25-32 42-60 42-28 0-52-17-60-42l-153 0c-12 0-22-10-22-22 0-11 10-21 22-21l153 0c8-25 32-43 60-43 28 0 52 18 60 43l25 0c12 0 22 10 22 21 0 12-10 22-22 22z m-85-43c-12 0-21 10-21 21 0 12 9 22 21 22 12 0 21-10 21-22 0-11-9-21-21-21z"/>
<glyph glyph-name="cam-disable" unicode="&#105;" d="M355 443c-9 7-22 6-30-2l-31-36-187 0c-36 0-64-28-64-64l0-170c0-15 4-28 12-39l-28-33c-8-9-7-22 2-30 8-7 22-6 30 2l298 342c8 9 7 22-2 30z m-269-276c0 1-1 2-1 4l0 170c0 12 10 22 22 22l150 0z m342 207l-87-70c-3 9-11 16-21 16-12 0-21-10-21-21l0-128c0-12-10-22-22-22l-106 0c-12 0-22-9-22-21 0-12 10-21 22-21l106 0c36 0 64 28 64 64l0 36 87-69c17-13 41-1 41 20l0 196c0 21-24 33-41 20z m-1-180l-64 51 0 22 64 51z"/>
<glyph glyph-name="cam-normal" unicode="&#106;" d="M107 405c-36 0-64-28-64-64l0-170c0-36 28-64 64-64l170 0c36 0 64 28 64 64l0 36 87-69c17-13 41-1 41 20l0 196c0 21-24 33-41 20l-87-69 0 36c0 36-28 64-64 64z m-22-64c0 12 10 22 22 22l170 0c12 0 22-10 22-22l0-170c0-12-10-22-22-22l-170 0c-12 0-22 10-22 22z m278-74l64 51 0-124-64 51z"/>
<glyph glyph-name="cart" unicode="&#107;" d="M236 424c1 11-7 22-18 24-11 1-21-7-22-18l-10-67-40 0c-39 0-68-39-59-80l41-171c6-28 31-48 58-48l140 0c27 0 52 20 58 48l41 171c9 41-20 80-59 80l-40 0-10 67c-1 11-11 19-22 18-11-2-19-13-18-24l9-61-58 0z m-55-104l-6-40c-1-11 6-22 17-24 12-1 22 7 23 18l7 46 68 0 7-46c1-11 11-19 23-18 11 2 18 13 17 24l-6 40 35 0c13 0 23-13 20-27l-41-170c-2-10-10-16-19-16l-140 0c-9 0-17 6-19 16l-41 170c-3 14 7 27 20 27z"/>
<glyph glyph-name="check" unicode="&#108;" d="M399 356c8-8 8-21 0-30l-171-170c-8-9-21-9-30 0l-85 85c-8 8-8 22 0 30 8 8 22 8 30 0l70-70 156 155c8 9 22 9 30 0z"/>
<glyph glyph-name="chessboard" unicode="&#109;" d="M85 384c0 24 19 43 43 43 24 0 43-19 43-43 0-24-19-43-43-43-24 0-43 19-43 43z m128 0c0 24 19 43 43 43 24 0 43-19 43-43 0-24-19-43-43-43-24 0-43 19-43 43z m171 43c-24 0-43-19-43-43 0-24 19-43 43-43 24 0 43 19 43 43 0 24-19 43-43 43z m-299-171c0 24 19 43 43 43 24 0 43-19 43-43 0-24-19-43-43-43-24 0-43 19-43 43z m171 43c-24 0-43-19-43-43 0-24 19-43 43-43 24 0 43 19 43 43 0 24-19 43-43 43z m85-43c0 24 19 43 43 43 24 0 43-19 43-43 0-24-19-43-43-43-24 0-43 19-43 43z m-213-85c-24 0-43-19-43-43 0-24 19-43 43-43 24 0 43 19 43 43 0 24-19 43-43 43z m85-43c0 24 19 43 43 43 24 0 43-19 43-43 0-24-19-43-43-43-24 0-43 19-43 43z m171 43c-24 0-43-19-43-43 0-24 19-43 43-43 24 0 43 19 43 43 0 24-19 43-43 43z"/>
<glyph glyph-name="code-mode" unicode="&#110;" d="M64 363c0 35 29 64 64 64l21 0c12 0 22-10 22-22 0-11-10-21-22-21l-21 0c-12 0-21-10-21-21l0-214c0-11 9-21 21-21l21 0c12 0 22-10 22-21 0-12-10-22-22-22l-21 0c-35 0-64 29-64 64l0 86-21 0c-12 0-22 9-22 21 0 12 10 21 22 21l21 0z m384 0l0-86 21 0c12 0 22-9 22-21 0-12-10-21-22-21l-21 0 0-86c0-35-29-64-64-64l-21 0c-12 0-22 10-22 22 0 11 10 21 22 21l21 0c12 0 21 10 21 21l0 214c0 11-9 21-21 21l-21 0c-12 0-22 10-22 21 0 12 10 22 22 22l21 0c35 0 64-29 64-64z m-107-128c-11 0-21 9-21 21 0 12 10 21 21 21 12 0 22-9 22-21 0-12-10-21-22-21z m-192 21c0-12 10-21 22-21 11 0 21 9 21 21 0 12-10 21-21 21-12 0-22-9-22-21z m107-21c-12 0-21 9-21 21 0 12 9 21 21 21 12 0 21-9 21-21 0-12-9-21-21-21z"/>
<glyph glyph-name="col-box" unicode="&#111;" d="M333 311c0 12-10 22-22 22l-110 0c-12 0-22-10-22-22l0-110c0-12 10-22 22-22l110 0c12 0 22 10 22 22z m0 0c0 12-10 22-22 22l-110 0c-12 0-22-10-22-22l0-110c0-12 10-22 22-22l110 0c12 0 22 10 22 22z"/>
<glyph glyph-name="copy" unicode="&#112;" d="M363 448l-128 0c-36 0-64-29-64-64l0-21-22 0c-35 0-64-29-64-64l0-171c0-35 29-64 64-64l128 0c36 0 64 29 64 64l0 21 22 0c35 0 64 29 64 64l0 171c0 35-29 64-64 64z m-64-320c0-12-10-21-22-21l-128 0c-11 0-21 9-21 21l0 171c0 11 10 21 21 21l22 0 0-107c0-35 28-64 64-64l64 0z m85 85c0-11-10-21-21-21l-128 0c-12 0-22 10-22 21l0 171c0 12 10 21 22 21l128 0c11 0 21-9 21-21z"/>
<glyph glyph-name="delete" unicode="&#113;" d="M192 427c0 11 10 21 21 21l86 0c11 0 21-10 21-21l85 0c12 0 22-10 22-22 0-11-10-21-22-21l-298 0c-12 0-22 10-22 21 0 12 10 22 22 22z m43-128c0 11-10 21-22 21-11 0-21-10-21-21l0-128c0-12 10-22 21-22 12 0 22 10 22 22z m85 0c0 11-10 21-21 21-12 0-22-10-22-21l0-128c0-12 10-22 22-22 11 0 21 10 21 22z m85 42l-298 0 0-213c0-35 28-64 64-64l170 0c36 0 64 29 64 64z m-256-213l0 171 214 0 0-171c0-12-10-21-22-21l-170 0c-12 0-22 9-22 21z"/>
<glyph glyph-name="directory" unicode="&#114;" d="M128 384l0 43-43 0 0-235c0-35 29-64 64-64l107 0c12 0 21 10 21 21 0 12-9 22-21 22l-107 0c-11 0-21 9-21 21l0 43 128 0c12 0 21 9 21 21 0 12-9 21-21 21l-128 0 0 64 128 0c12 0 21 10 21 22 0 11-9 21-21 21z m271-21c0-20-16-37-36-37-20 0-37 17-37 37 0 20 17 36 37 36 20 0 36-16 36-36z m0-107c0-20-16-36-36-36-20 0-37 16-37 36 0 20 17 36 37 36 20 0 36-16 36-36z m0-107c0-20-16-36-36-36-20 0-37 16-37 36 0 20 17 37 37 37 20 0 36-17 36-37z"/>
<glyph glyph-name="disconnect" unicode="&#115;" d="M483 464c-8 8-22 7-30-2l-40-46c-28 33-69 53-114 53-68 0-126-45-144-107-5 0-11 1-16 1-77 0-139-62-139-139 0-70 52-128 120-137l-8-9c-8-9-7-22 2-30 9-8 22-7 30 2l341 384c8 9 7 22-2 30z m-327-336l-17 0c-53 0-96 43-96 96 0 53 43 96 96 96 9 0 18-1 27-4 6-2 12-1 17 3 6 3 9 9 10 15 7 52 51 93 106 93 34 0 65-17 85-43z m356 75c0-65-52-118-117-118l-118 0c-11 0-21 10-21 22 0 11 10 21 21 21l118 0c41 0 74 33 74 75 0 25-13 48-33 62-10 6-12 20-6 29 7 10 20 13 30 6 31-21 52-57 52-97z"/>
<glyph glyph-name="doub-left" unicode="&#116;" d="M221 349c4 4 11 4 15 0l15-15c4-4 4-11 0-15l-55-55c-4-5-4-11 0-16l55-55c4-4 4-11 0-15l-15-15c-4-4-11-4-15 0l-78 78c-8 8-8 22 0 30z m109 0c4 4 11 4 15 0l15-15c4-4 4-11 0-15l-55-55c-4-5-4-11 0-16l55-55c4-4 4-11 0-15l-15-15c-4-4-11-4-15 0l-78 78c-8 8-8 22 0 30z"/>
<glyph glyph-name="doub-right" unicode="&#117;" d="M300 349c-4 4-11 4-15 0l-15-15c-4-4-4-11 0-15l55-55c4-5 4-11 0-16l-55-55c-4-4-4-11 0-15l15-15c4-4 11-4 15 0l78 78c8 8 8 22 0 30z m-109 0c-4 4-11 4-15 0l-15-15c-5-4-5-11 0-15l55-55c4-5 4-11 0-16l-55-55c-5-4-5-11 0-15l15-15c4-4 11-4 15 0l77 78c9 8 9 22 0 30z"/>
<glyph glyph-name="download" unicode="&#118;" d="M277 384c0 12-9 21-21 21-12 0-21-9-21-21l0-140-49 48c-9 9-22 9-30 0-9-8-9-21 0-30l85-85c8-8 22-8 30 0l85 85c9 9 9 22 0 30-8 9-21 9-30 0l-49-48z m-128-235c0 12-9 22-21 22-12 0-21-10-21-22l0-21c0-24 19-43 42-43l214 0c23 0 42 19 42 43l0 21c0 12-9 22-21 22-12 0-21-10-21-22l0-21-214 0z"/>
<glyph glyph-name="drag-horizontal" unicode="&#119;" d="M69 250c-3 3-3 9 0 12l62 84c4 4 10 5 15 2l17-13c5-4 6-10 2-15l-32-43 96 0c6 0 11-4 11-10l0-22c0-6-5-10-11-10l-96 0 32-43c4-5 3-11-2-15l-17-13c-5-3-11-2-15 2z m214 17c0 6 4 10 10 10l96 0-32 43c-3 5-2 11 2 15l18 13c4 3 11 2 14-2l63-84c3-3 3-9 0-12l-63-84c-3-4-10-5-14-2l-18 13c-4 4-5 10-2 15l32 43-96 0c-6 0-10 4-10 10z"/>
<glyph glyph-name="drag-vertical" unicode="&#120;" d="M243 438c8 6 18 6 26 0l77-57c4-4 5-10 2-15l-13-17c-4-5-10-6-15-2l-43 32 0-96c0-6-4-11-10-11l-22 0c-6 0-10 5-10 11l0 96-43-32c-5-4-11-3-15 2l-13 17c-3 5-2 11 2 15z m24-209c6 0 10-4 10-10l0-96 43 32c5 3 11 2 15-2l13-18c3-4 2-11-2-14l-77-58c-8-6-18-6-26 0l-77 58c-4 3-5 10-2 14l13 18c4 4 10 5 15 2l43-32 0 96c0 6 4 10 10 10z"/>
<glyph glyph-name="drawer" unicode="&#121;" d="M448 256c0 16-9 30-21 37l0 75c12 8 21 22 21 37 0 24-19 43-43 43-15 0-29-9-37-21l-75 0c-7 12-21 21-37 21-16 0-30-9-37-21l-75 0c-8 12-22 21-37 21-24 0-43-19-43-43 0-15 9-29 21-37l0-75c-12-7-21-21-21-37 0-16 9-30 21-37l0-75c-12-8-21-22-21-37 0-24 19-43 43-43 15 0 29 9 37 21l75 0c8-12 21-21 37-21 16 0 30 9 37 21l75 0c8-12 22-21 37-21 24 0 43 19 43 43 0 15-9 29-21 37l0 75c12 7 21 21 21 37z m-64 37c-13-7-21-21-21-37 0-16 8-30 21-37l0-75c-6-4-12-10-16-16l-75 0c-8 13-21 21-37 21-16 0-30-8-37-21l-75 0c-4 6-10 12-16 16l0 75c13 7 21 21 21 37 0 16-8 30-21 37l0 75c6 4 12 10 16 16l75 0c7-13 21-21 37-21 16 0 30 8 37 21l75 0c4-6 10-12 16-16z"/>
<glyph glyph-name="drop-down" unicode="&#122;" d="M356 284l-100-101-100 101 30 30 70-70 70 70z"/>
<glyph glyph-name="drop-up" unicode="&#65;" d="M356 228l-100 101-100-101 30-30 70 70 70-70z"/>
<glyph glyph-name="edge" unicode="&#66;" d="M256 384c-12 0-21-10-21-21 0-12 9-22 21-22 40 0 73-27 83-64l-83 0c-12 0-21-9-21-21 0-12 9-21 21-21l107 0c11 0 21 9 21 21 0 71-57 128-128 128z m-85-128c0 12-10 21-22 21-11 0-21-9-21-21 0-71 57-128 128-128 12 0 21 10 21 21 0 12-9 22-21 22-47 0-85 38-85 85z m85 235c-130 0-235-105-235-235 0-130 105-235 235-235 130 0 235 105 235 235 0 130-105 235-235 235z m-192-235c0 106 86 192 192 192 106 0 192-86 192-192 0-106-86-192-192-192-106 0-192 86-192 192z"/>
<glyph glyph-name="edit" unicode="&#67;" d="M149 427c-35 0-64-29-64-64l0-214c0-35 29-64 64-64l214 0c35 0 64 29 64 64l0 64c0 12-10 22-22 22-11 0-21-10-21-22l0-64c0-11-10-21-21-21l-214 0c-11 0-21 10-21 21l0 214c0 11 10 21 21 21l64 0c12 0 22 10 22 21 0 12-10 22-22 22z m244 0c-17 16-44 16-61 0l-125-126c-9-8-14-19-17-30l-17-67c-5-19 12-36 31-31l67 17c11 3 22 8 30 17l126 125c16 17 16 44 0 61z m-156-156l126 125 33-33-125-126c-3-3-7-5-10-6l-40-10 10 40c1 3 3 7 6 10z"/>
<glyph glyph-name="enrollment" unicode="&#68;" d="M171 373c0 42 33 75 74 75l128 0c42 0 75-33 75-75 0-41-33-74-75-74l-54 0c14-14 22-33 22-54 0-11-2-22-7-32l39 0c42 0 75-33 75-74 0-42-33-75-75-75l-128 0c-41 0-74 33-74 75 0 11 2 22 7 32l-39 0c-42 0-75 33-75 74 0 42 33 75 75 75l54 0c-14 14-22 32-22 53z m96-160c17 0 32 15 32 32 0 18-15 32-32 32l-128 0c-18 0-32-14-32-32 0-17 14-32 32-32z m-22-42c-17 0-32-15-32-32 0-18 15-32 32-32l128 0c18 0 32 14 32 32 0 17-14 32-32 32z m0 234c-17 0-32-14-32-32 0-17 15-32 32-32l128 0c18 0 32 15 32 32 0 18-14 32-32 32z"/>
<glyph glyph-name="external" unicode="&#69;" d="M405 256c-11 0-21 10-21 21l0 77-134-134c-9-9-22-9-30 0-9 8-9 21 0 30l134 134-77 0c-11 0-21 10-21 21 0 12 10 22 21 22l128 0c12 0 22-10 22-22l0-128c0-11-10-21-22-21z m-256 128c-35 0-64-29-64-64l0-171c0-35 29-64 64-64l171 0c35 0 64 29 64 64l0 54c0 11-10 21-21 21-12 0-22-10-22-21l0-54c0-11-9-21-21-21l-171 0c-11 0-21 10-21 21l0 171c0 12 10 21 21 21l54 0c11 0 21 10 21 22 0 11-10 21-21 21z"/>
<glyph glyph-name="filter" unicode="&#70;" d="M135 353c-17 21-2 52 25 52l192 0c27 0 42-31 25-52l-57-83 0-99c0-12-10-22-21-22-12 0-22 10-22 22l0 114 63 78-168 0 63-78 0-157c0-12-10-21-22-21-11 0-21 9-21 21l0 142z"/>
<glyph glyph-name="find-face" unicode="&#71;" d="M128 345c0 49 32 82 64 82 11 0 21-4 30-10 10-7 23-5 30 5 7 10 5 23-5 30-16 11-35 17-55 17-62 0-107-59-107-124 0-48 33-94 64-121l0-2c0-9-5-17-14-20l-93-34c-25-9-42-33-42-60l0-23c0-23 19-42 43-42l298 0c24 0 43 19 43 42l0 11c0 6-5 11-11 11l-21 0c-6 0-11-5-11-11l0-11-298 0 0 23c0 9 5 17 14 20l93 34c25 9 42 33 42 60l0 7c0 11-5 20-12 26-28 21-52 58-52 90z m85-68c0 71 58 128 128 128 71 0 128-57 128-128 0-27-8-53-23-74l60-60c8-8 8-22 0-30-9-8-22-8-30 0l-60 60c-21-15-47-24-75-24-70 0-128 58-128 128z m128 86c-47 0-85-39-85-86 0-47 38-85 85-85 47 0 86 38 86 85 0 47-39 86-86 86z"/>
<glyph glyph-name="folder" unicode="&#72;" d="M262 408c-12 12-28 19-45 19l-68 0c-35 0-64-29-64-64l0-214c0-35 29-64 64-64l214 0c35 0 64 29 64 64l0 171c0 35-29 64-64 64l-68 0c-6 0-11 2-15 6z m-45-24c6 0 11-2 15-6l18-18c12-12 28-19 45-19l68 0c11 0 21-9 21-21l0-171c0-11-10-21-21-21l-214 0c-11 0-21 10-21 21l0 214c0 11 10 21 21 21z"/>
<glyph glyph-name="fullscreen" unicode="&#73;" d="M332 363l-23 0c-6 0-10 4-10 10l0 22c0 6 4 10 10 10l75 0c12 0 21-9 21-21l0-75c0-6-4-10-10-10l-22 0c-6 0-10 4-10 10l0 23-56-55c-4-4-11-4-15 0l-15 15c-4 4-4 11 0 15z m-97-143c4-4 4-11 0-15l-55-56 23 0c6 0 10-4 10-10l0-22c0-6-4-10-10-10l-75 0c-12 0-21 9-21 21l0 75c0 6 4 10 10 10l22 0c6 0 10-4 10-10l0-23 56 55c4 4 11 4 15 0z"/>
<glyph glyph-name="generic" unicode="&#74;" d="M160 427c-41 0-75-34-75-75 0-41 34-75 75-75 41 0 75 34 75 75 0 41-34 75-75 75z m-32-75c0 18 14 32 32 32 18 0 32-14 32-32 0-18-14-32-32-32-18 0-32 14-32 32z m224 75c-41 0-75-34-75-75 0-41 34-75 75-75 41 0 75 34 75 75 0 41-34 75-75 75z m-32-75c0 18 14 32 32 32 18 0 32-14 32-32 0-18-14-32-32-32-18 0-32 14-32 32z m-235-192c0 41 34 75 75 75 41 0 75-34 75-75 0-41-34-75-75-75-41 0-75 34-75 75z m75 32c-18 0-32-14-32-32 0-18 14-32 32-32 18 0 32 14 32 32 0 18-14 32-32 32z m192 43c-41 0-75-34-75-75 0-41 34-75 75-75 41 0 75 34 75 75 0 41-34 75-75 75z m-32-75c0 18 14 32 32 32 18 0 32-14 32-32 0-18-14-32-32-32-18 0-32 14-32 32z"/>
<glyph glyph-name="globe" unicode="&#75;" d="M256 448c-106 0-192-86-192-192 0-106 86-192 192-192 106 0 192 86 192 192 0 106-86 192-192 192z m148-171l-63 0c-2 41-9 78-20 107-1 3-2 5-3 8 46-21 79-64 86-115z m-296-42l63 0c2-41 9-78 20-107 1-3 2-5 3-8-46 21-79 64-86 115z m83 149c-11-29-18-66-20-107l-63 0c7 51 40 94 86 115-1-3-2-5-3-8z m90-241c-5-14-11-24-16-30-5-6-8-6-9-6-1 0-4 0-9 6-5 6-11 16-16 30-9 23-16 55-17 92l84 0c-2-37-8-69-17-92z m-67 134c2 37 8 69 17 92 5 14 11 24 16 30 5 6 8 6 9 6 1 0 4 0 9-6 5-6 11-16 16-30 9-23 16-55 17-92z m104-157c1 3 2 5 3 8 11 29 18 66 20 107l63 0c-7-51-40-94-86-115z"/>
<glyph glyph-name="graphic" unicode="&#76;" d="M262 309c0 26 21 47 47 47 26 0 47-21 47-47 0-26-21-47-47-47-26 0-47 21-47 47z m47 17c-9 0-17-7-17-17 0-9 8-17 17-17 10 0 17 8 17 17 0 10-7 17-17 17z m-245 37c0 35 29 64 64 64l256 0c35 0 64-29 64-64l0-214c0-35-29-64-64-64l-256 0c-35 0-64 29-64 64z m64 21c-12 0-21-10-21-21l0-202 75 91c16 19 45 20 63 3l32-33 13 13c16 16 44 16 60 0l55-56 0 184c0 11-9 21-21 21z m266-254l-74 74-28-27c-8-8-21-8-30 0l-47 47-81-96 250 0c4 0 7 1 10 2z"/>
<glyph glyph-name="grid" unicode="&#77;" d="M363 405l-214 0c-23 0-42-19-42-42l0-214c0-23 19-42 42-42l214 0c23 0 42 19 42 42l0 214c0 23-19 42-42 42z m-128-256l-86 0 0 86 86 0z m0 128l-86 0 0 86 86 0z m128-128l-86 0 0 86 86 0z m0 128l-86 0 0 86 86 0z"/>
<glyph glyph-name="info" unicode="&#78;" d="M277 352c0-18-14-32-32-32-17 0-32 14-32 32 0 18 15 32 32 32 18 0 32-14 32-32z m-85-181c0 11 10 21 21 21l22 0 0 64-22 0c-11 0-21 10-21 21 0 12 10 22 21 22l43 0c12 0 21-10 21-22l0-85 22 0c11 0 21-10 21-21 0-12-10-22-21-22l-86 0c-11 0-21 10-21 22z m64 320c-130 0-235-105-235-235 0-130 105-235 235-235 130 0 235 105 235 235 0 130-105 235-235 235z m-192-235c0 106 86 192 192 192 106 0 192-86 192-192 0-106-86-192-192-192-106 0-192 86-192 192z"/>
<glyph glyph-name="key" unicode="&#79;" d="M171 345c0 49 32 82 64 82 10 0 21-4 30-10 10-7 23-5 30 5 7 10 4 23-5 30-16 11-35 17-55 17-63 0-107-59-107-124 0-48 32-94 64-121l0-2c0-9-6-17-14-20l-93-34c-25-9-42-33-42-60l0-23c0-23 19-42 42-42l363 0c12 0 21 9 21 21 0 12-9 21-21 21l-363 0 0 23c0 9 6 17 14 20l94 34c25 9 42 33 42 60l0 7c0 11-5 20-13 26-27 21-51 58-51 90z m192 103c0 12-10 21-22 21-11 0-21-9-21-21l0-196c-25-8-43-32-43-60 0-35 29-64 64-64 36 0 64 29 64 64 0 28-17 52-42 60l0 89 42 0 0 43 22 0 0 43-64 0z m-43-256c0 12 10 21 21 21 12 0 22-9 22-21 0-12-10-21-22-21-11 0-21 9-21 21z"/>
<glyph glyph-name="linked" unicode="&#80;" d="M331 405c-25 1-50-9-68-27l0 0-26-26c-8-8-8-22 0-30 8-8 22-8 30 0l26 26c10 9 24 15 38 15 14 0 27-6 37-16 10-10 16-24 16-38 0-14-5-27-15-37l-45-45c-5-6-12-10-19-13-7-2-15-4-23-3-7 1-15 3-22 6-6 4-12 9-17 15-7 10-20 12-30 5-9-7-11-21-4-30 8-11 19-20 31-27 12-7 25-11 39-12 14-1 28 1 41 6 13 5 25 13 34 22l45 46 1 0c17 18 27 42 27 68-1 25-11 49-29 67-17 18-42 28-67 28z m-98-104c-14 1-28-1-41-6-13-5-25-12-34-22l-45-45-1 0c-17-19-27-43-27-68 1-26 11-50 29-68 17-18 42-28 67-28 25 0 50 10 68 27l0 0 26 26c8 8 8 22 0 30-9 9-22 9-30 0l-26-25c-10-10-24-15-38-15-14 0-27 5-37 15-10 10-16 24-16 38 0 14 5 28 15 38l45 45c5 5 12 9 19 12 7 3 15 4 23 3 7 0 15-2 22-6 6-4 12-9 17-15 7-10 20-11 30-4 9 7 11 20 4 29-8 12-19 21-31 27-12 7-25 11-39 12z"/>
<glyph glyph-name="listed" unicode="&#81;" d="M107 427c-24 0-43-19-43-43 0-24 19-43 43-43 23 0 42 19 42 43 0 24-19 43-42 43z m106-22c-11 0-21-9-21-21 0-12 10-21 21-21l214 0c11 0 21 9 21 21 0 12-10 21-21 21z m0-128c-11 0-21-9-21-21 0-12 10-21 21-21l214 0c11 0 21 9 21 21 0 12-10 21-21 21z m-21-149c0 12 10 21 21 21l214 0c11 0 21-9 21-21 0-12-10-21-21-21l-214 0c-11 0-21 9-21 21z m-128 128c0 24 19 43 43 43 23 0 42-19 42-43 0-24-19-43-42-43-24 0-43 19-43 43z m43-85c-24 0-43-19-43-43 0-24 19-43 43-43 23 0 42 19 42 43 0 24-19 43-42 43z"/>
<glyph glyph-name="lock-off" unicode="&#82;" d="M277 405c47 0 86-38 86-85l0-43c23 0 42-19 42-42l0-86c0-23-19-42-42-42l-214 0c-23 0-42 19-42 42l0 86c0 23 19 42 42 42l171 0 0 43c0 24-19 43-43 43l-42 0c-24 0-43-19-43-43l-43 0c0 47 39 85 86 85z m86-170l-214 0 0-86 214 0z"/>
<glyph glyph-name="lock-on" unicode="&#83;" d="M405 235c0 23-19 42-42 42l-214 0c-23 0-42-19-42-42l0-86c0-23 19-42 42-42l214 0c23 0 42 19 42 42z m-256 0l214 0 0-86-214 0z m214 85c0 47-39 85-86 85l-42 0c-47 0-86-38-86-85l0-85 214 0z m-86 43c24 0 43-19 43-43l0-43-128 0 0 43c0 24 19 43 43 43z"/>
<glyph glyph-name="log-history" unicode="&#84;" d="M85 256c0 106 86 192 192 192 106 0 192-86 192-192 0-106-86-192-192-192-11 0-21 10-21 21 0 12 10 22 21 22 83 0 150 67 150 149 0 82-67 149-150 149-82 0-149-67-149-149l0-76 28 27c8 8 21 8 30 0 8-8 8-22 0-30l-64-64c-9-8-22-8-30 0l-64 64c-9 8-9 22 0 30 8 8 21 8 30 0l27-27z m171 85c12 0 21-9 21-21l0-64 64 0c12 0 22-10 22-21 0-12-10-22-22-22l-85 0c-12 0-21 10-21 22l0 85c0 12 9 21 21 21z"/>
<glyph glyph-name="mail" unicode="&#85;" d="M405 427l-298 0c-36 0-64-29-64-64l0-214c0-35 28-64 64-64l298 0c36 0 64 29 64 64l0 214c0 35-28 64-64 64z m-11-43l-138-121-138 121z m33-235c0-11-10-21-22-21l-298 0c-12 0-22 10-22 21l0 207 143-125c16-14 40-14 56 0l143 125z"/>
<glyph glyph-name="more" unicode="&#86;" d="M226 384c0-16 14-30 30-30 16 0 30 14 30 30 0 16-14 30-30 30-16 0-30-14-30-30z m0-128c0-16 14-30 30-30 16 0 30 14 30 30 0 16-14 30-30 30-16 0-30-14-30-30z m0-128c0-16 14-30 30-30 16 0 30 14 30 30 0 16-14 30-30 30-16 0-30-14-30-30z"/>
<glyph glyph-name="non-full" unicode="&#87;" d="M413 398c4-4 4-11 0-15l-63-63 23 0c6 0 11-5 11-11l0-21c0-6-5-11-11-11l-85 0c-6 0-11 5-11 11l0 85c0 6 5 11 11 11l21 0c6 0 11-5 11-11l0-23 63 63c4 4 11 4 15 0z m-251-206l-23 0c-6 0-11 5-11 11l0 21c0 6 5 11 11 11l85 0c6 0 11-5 11-11l0-85c0-6-5-11-11-11l-21 0c-6 0-11 5-11 11l0 23-63-63c-4-4-11-4-15 0l-15 15c-4 4-4 11 0 15z"/>
<glyph glyph-name="notif" unicode="&#88;" d="M192 448c0 12 10 21 21 21l86 0c11 0 21-9 21-21 0-12-10-21-21-21l-86 0c-11 0-21 9-21 21z m235-320c0-12-10-21-22-21l-66 0c-10-37-43-64-83-64-39 0-73 27-82 64l-46 0c0 0 0 0 0 0l-21 0c-12 0-22 9-22 21 0 12 10 21 22 21l2 0 33 160c5 55 51 96 106 96l16 0c55 0 101-41 106-96l33-160 2 0c12 0 22-9 22-21z m-134-21l-74 0c8-13 21-22 37-22 16 0 30 9 37 22z m68 42l-33 156c-4 33-31 58-64 58l-16 0c-33 0-60-25-64-58l-33-156z"/>
<glyph glyph-name="pdf" unicode="&#89;" d="M75 341c15 0 28-2 39-7 12-5 20-12 26-22 7-9 10-20 10-33 0-12-3-23-10-33-6-9-14-16-26-21-11-5-24-7-39-7l-30 0c-3 0-5-3-5-5l0-37c0-3-2-5-5-5l-30 0c-3 0-5 2-5 5l0 160c0 3 2 5 5 5z m-3-91c12 0 22 2 28 7 6 6 9 13 9 22 0 10-3 17-9 22-6 6-16 8-28 8l-27 0c-3 0-5-2-5-5l0-49c0-3 2-5 5-5z m106 86c0 3 2 5 5 5l73 0c19 0 36-3 50-10 14-7 26-17 33-30 9-13 13-28 13-45 0-17-4-32-13-45-7-13-19-23-33-30-14-7-31-10-50-10l-73 0c-3 0-5 2-5 5z m76-133c18 0 31 5 42 14 10 10 15 23 15 39 0 16-5 29-15 39-11 9-24 14-42 14l-31 0c-3 0-5-2-5-5l0-96c0-3 2-5 5-5z m173 107c-3 0-5-3-5-5l0-35c0-3 2-5 5-5l69 0c3 0 5-3 5-6l0-21c0-3-2-5-5-5l-69 0c-3 0-5-2-5-5l0-52c0-3-3-5-6-5l-29 0c-3 0-5 2-5 5l0 160c0 3 2 5 5 5l120 0c3 0 5-2 5-5l0-21c0-3-2-5-5-5z"/>
<glyph glyph-name="pen-button" unicode="&#90;" d="M456 180l-53 53c-3 3-5 7-6 12l-5 25c-6 30-20 58-42 79l-11 11c-29 29-68 45-109 45l-101 0c-13 0-22-9-22-22l0-101c0-41 16-80 45-109l11-11c21-22 49-36 79-42l25-5c5-1 8-3 12-6l53-53c17-18 45-18 62 0l63 62c17 17 17 45-1 62z m-93-93l-53 53c-9 9-21 15-34 18l-26 5c-21 4-41 15-56 30l-11 11c-21 21-32 49-32 78l0 48 60-60c-4-15 0-31 12-43 17-17 45-17 62 0 17 17 17 45 0 63-12 11-28 15-43 11l-60 60 48 0c29 0 57-11 78-32l11-11c15-15 26-35 30-56l5-26c3-13 9-24 18-34l53-53z"/>
<glyph glyph-name="picker" unicode="&#48;" d="M213 469c0 24 19 43 43 43 17 0 32-10 39-25 19-3 38-9 57-17 29-13 56-32 78-56 22-25 38-53 49-84 4-12 6-23 8-35 15-7 25-22 25-39 0-24-19-43-43-43-23 0-42 19-42 43 0 15 7 28 19 36-2 8-4 17-7 25-8 25-22 49-40 69-18 19-40 35-64 46-14 6-29 11-43 14-8-12-21-19-36-19-24 0-43 19-43 42z m-93-48c-7 9-21 10-29 2-18-18-33-39-45-62-10-21-18-43-21-66-15-7-25-22-25-39 0-17 10-32 25-39 2-15 6-31 12-45 12-31 30-59 53-82 23-23 51-41 81-53 15-6 31-10 46-12 7-15 22-25 39-25 17 0 32 10 39 25 23 3 45 11 66 21 23 12 44 27 62 45 8 8 7 21-2 29-9 7-22 6-30-2-15-14-31-26-49-35-16-8-33-13-50-17-8 12-21 19-36 19-15 0-28-7-36-19-11 2-23 6-34 10-25 10-48 25-67 44-19 19-33 41-43 66-4 12-8 23-10 34 12 8 19 21 19 36 0 15-7 28-19 36 4 17 9 34 17 50 9 18 21 35 35 49 8 8 9 21 2 30z m51-165c0 47 38 85 85 85 47 0 85-38 85-85 0-47-38-85-85-85-47 0-85 38-85 85z m85 43c-24 0-43-19-43-43 0-24 19-43 43-43 24 0 43 19 43 43 0 24-19 43-43 43z"/>
<glyph glyph-name="placeholder" unicode="&#49;" d="M256 363c-59 0-107-48-107-107 0-59 48-107 107-107 59 0 107 48 107 107 0 59-48 107-107 107z m-149-107c0 82 67 149 149 149 82 0 149-67 149-149 0-82-67-149-149-149-82 0-149 67-149 149z m106 0c0 24 19 43 43 43 24 0 43-19 43-43 0-24-19-43-43-43-24 0-43 19-43 43z"/>
<glyph glyph-name="plate-num" unicode="&#50;" d="M299 363c11 0 21-10 21-22l0-21 21 0c12 0 22-10 22-21 0-12-10-22-22-22l-21 0 0-42 21 0c12 0 22-10 22-22 0-11-10-21-22-21l-21 0 0-21c0-12-10-22-21-22-12 0-22 10-22 22l0 21-42 0 0-21c0-12-10-22-22-22-11 0-21 10-21 22l0 21-21 0c-12 0-22 10-22 21 0 12 10 22 22 22l21 0 0 42-21 0c-12 0-22 10-22 22 0 11 10 21 22 21l21 0 0 21c0 12 10 22 21 22 12 0 22-10 22-22l0-21 42 0 0 21c0 12 10 22 22 22z m-22-86l-42 0 0-42 42 0z m214 64c0 59-48 107-107 107l-256 0c-59 0-107-48-107-107l0-170c0-59 48-107 107-107l256 0c59 0 107 48 107 107z m-107 64c35 0 64-28 64-64l0-170c0-36-29-64-64-64l-256 0c-35 0-64 28-64 64l0 170c0 36 29 64 64 64z"/>
<glyph glyph-name="play" unicode="&#51;" d="M186 400c-27 16-58-5-58-35l0-197c0-29 31-50 58-35l178 99c27 15 27 54 0 70z m136-143c7 4 7 15 0 19l-135 75c-8 4-16-1-16-9l0-151c0-8 8-13 16-9z"/>
<glyph glyph-name="plus" unicode="&#52;" d="M363 256c0-12-10-21-22-21l-64 0 0-64c0-12-9-22-21-22-12 0-21 10-21 22l0 64-64 0c-12 0-22 9-22 21 0 12 10 21 22 21l64 0 0 64c0 12 9 22 21 22 12 0 21-10 21-22l0-64 64 0c12 0 22-9 22-21z m128 0c0-130-105-235-235-235-130 0-235 105-235 235 0 130 105 235 235 235 130 0 235-105 235-235z m-43 0c0 106-86 192-192 192-106 0-192-86-192-192 0-106 86-192 192-192 106 0 192 86 192 192z"/>
<glyph glyph-name="plus-big" unicode="&#53;" d="M256 427c11 0 21-10 21-21l0-129 129 0c11 0 21-10 21-21 0-11-10-21-21-21l-129 0 0-129c0-11-10-21-21-21-11 0-21 10-21 21l0 129-129 0c-11 0-21 10-21 21 0 11 10 21 21 21l129 0 0 129c0 11 10 21 21 21z"/>
<glyph glyph-name="printer" unicode="&#54;" d="M384 363l-21 0 0 21c0 23-20 43-43 43l-107 0c-35 0-64-29-64-64l-21 0c-35 0-64-29-64-64l0-107c0-35 29-64 64-64l21 0c0-23 20-43 43-43l128 0c23 0 43 20 43 43l21 0c35 0 64 29 64 64l0 107c0 35-29 64-64 64z m-171 21l107 0 0-21-128 0c0 11 10 21 21 21z m107-256l-128 0 0 85 128 0z m85 64c0-12-9-21-21-21l-21 0 0 42c11 0 21 10 21 22 0 11-10 21-21 21l-214 0c-11 0-21-10-21-21 0-12 10-22 21-22l0-42-21 0c-12 0-21 9-21 21l0 107c0 11 9 21 21 21l256 0c12 0 21-10 21-21z"/>
<glyph glyph-name="refresh" unicode="&#55;" d="M447 421c3 12-4 23-15 26-12 3-23-4-26-15l-10-40c-35 38-84 56-140 56-106 0-192-86-192-192 0-106 86-192 192-192 74 0 136 33 168 97 6 11 1 23-9 29-11 5-23 1-29-10-24-48-70-73-130-73-82 0-149 67-149 149 0 82 67 149 149 149 46 0 84-14 109-42l-45 0c-12 0-21-10-21-22 0-11 9-21 21-21l85 0c2 0 5 0 8 1 1 1 2 1 3 2 3 2 6 5 8 8 1 1 1 3 2 4 0 1 0 1 0 1z"/>
<glyph glyph-name="root-child" unicode="&#56;" d="M235 469l0-85 42 0 0 85z m0-256l0 86 42 0 0-22 22 0 0-42-22 0 0-22z m0-85l0-85 42 0 0 85z m149 149l85 0 0-42-85 0z"/>
<glyph glyph-name="root-last" unicode="&#57;" d="M235 384l0 85 42 0 0-85z m42-85l-42 0 0-64 64 0 0 42-22 0z m192-64l-85 0 0 42 85 0z"/>
<glyph glyph-name="search" unicode="&#33;" d="M235 427c-83 0-150-67-150-150 0-82 67-149 150-149 33 0 64 11 89 30l66-66c9-9 22-9 30 0 9 8 9 21 0 30l-66 66c19 25 30 56 30 89 0 83-67 150-149 150z m-107-150c0 59 48 107 107 107 59 0 106-48 106-107 0-59-47-106-106-106-59 0-107 47-107 106z"/>
<glyph glyph-name="setting" unicode="&#34;" d="M320 256c0-35-29-64-64-64-35 0-64 29-64 64 0 35 29 64 64 64 35 0 64-29 64-64z m128 11l0-22c0-6-5-10-11-10l-33 0c-4-26-14-49-28-68l23-24c5-4 5-11 0-15l-15-15c-4-5-11-5-15 0l-24 23c-19-14-42-24-68-28l0-33c0-6-4-11-10-11l-22 0c-6 0-10 5-10 11l0 33c-26 4-49 14-68 28l-24-23c-4-5-11-5-15 0l-15 15c-5 4-5 11 0 15l23 24c-14 19-24 42-28 68l-33 0c-6 0-11 4-11 10l0 22c0 6 5 10 11 10l33 0c4 26 14 49 28 68l-23 24c-5 4-5 11 0 15l15 15c4 5 11 5 15 0l24-23c19 14 42 24 68 28l0 33c0 6 4 11 10 11l22 0c6 0 10-5 10-11l0-33c26-4 49-14 68-28l24 23c4 5 11 5 15 0l15-15c5-4 5-11 0-15l-23-24c14-19 24-42 28-68l33 0c6 0 11-4 11-10z m-85-11c0 59-48 107-107 107-59 0-107-48-107-107 0-59 48-107 107-107 59 0 107 48 107 107z"/>
<glyph glyph-name="show-off" unicode="&#35;" d="M393 369l-256-256c-8-8-22-8-30 0-9 8-9 22 0 30l256 256c8 8 22 8 30 0 8-8 8-22 0-30z m-97-7c5 6 3 16-5 17-13 3-27 5-41 5-47 0-90-18-123-40-34-21-59-46-73-61-15-15-15-39 0-54 10-12 28-29 50-46 4-3 10-2 14 1l15 16c5 4 4 12-1 16-20 15-36 30-46 40 13 14 36 35 64 52 29 19 64 33 100 33 6 0 12 0 17-1 4 0 7 1 10 3z m-73-193c2 2 6 3 9 3 6-1 12-1 18-1 36 0 70 14 100 33 28 17 50 38 63 52-10 10-26 25-45 40-5 4-6 12-1 16l15 16c3 3 9 4 13 1 23-17 40-34 51-46 14-15 14-39 0-54-14-15-40-40-73-61-34-22-76-40-123-40-15 0-28 2-42 5-7 1-10 11-4 17z"/>
<glyph glyph-name="show-on" unicode="&#36;" d="M256 192c35 0 64 29 64 64 0 35-29 64-64 64-35 0-64-29-64-64 0-35 29-64 64-64z m0 192c-47 0-90-18-123-40-33-21-59-46-73-61-15-15-15-39 0-54 14-15 40-40 73-61 33-22 76-40 123-40 47 0 90 18 123 40 33 21 59 46 73 61 15 15 15 39 0 54-14 15-40 40-73 61-33 22-76 40-123 40z m-100-180c-28 17-50 38-63 52 13 14 35 35 63 52 30 19 64 33 100 33 36 0 70-14 100-33 28-17 50-38 63-52-13-14-35-35-63-52-30-19-64-33-100-33-36 0-70 14-100 33z"/>
<glyph glyph-name="sign-out" unicode="&#37;" d="M107 427c-36 0-64-29-64-64l0-214c0-35 28-64 64-64l149 0c35 0 64 29 64 64 0 12-10 22-21 22-12 0-22-10-22-22 0-11-9-21-21-21l-149 0c-12 0-22 10-22 21l0 214c0 11 10 21 22 21l149 0c12 0 21-10 21-21 0-12 10-22 22-22 11 0 21 10 21 22 0 35-29 64-64 64z m262-92c8 8 22 8 30 0l64-64c8-8 8-22 0-30l-64-64c-8-8-22-8-30 0-8 8-8 22 0 30l27 28-225 0c-12 0-22 9-22 21 0 12 10 21 22 21l225 0-27 28c-8 8-8 22 0 30z"/>
<glyph glyph-name="topup" unicode="&#38;" d="M235 64c106 0 192 86 192 192l0 76 27-27c9-8 22-8 30 0 9 8 9 22 0 30l-64 64c-8 8-21 8-30 0l-64-64c-8-8-8-22 0-30 9-8 22-8 30 0l28 27 0-76c0-82-67-149-149-149-83 0-150 67-150 149 0 82 67 149 150 149 11 0 21 10 21 22 0 11-10 21-21 21-106 0-192-86-192-192 0-106 86-192 192-192z m0 277c-12 0-22-9-22-21l0-43-42 0c-12 0-22-9-22-21 0-12 10-21 22-21l42 0 0-43c0-12 10-21 22-21 11 0 21 9 21 21l0 43 43 0c11 0 21 9 21 21 0 12-10 21-21 21l-43 0 0 43c0 12-10 21-21 21z"/>
<glyph glyph-name="up-down" unicode="&#39;" d="M256 457l100-101-30-30-70 70-70-70-30 30z m0-359l100 100-30 30-70-70-70 70-30-30z"/>
<glyph glyph-name="upload" unicode="&#40;" d="M156 292c-9-8-9-21 0-30 8-8 21-8 30 0l49 49 0-119c0-12 9-21 21-21 12 0 21 9 21 21l0 119 49-49c9-8 22-8 30 0 9 9 9 22 0 30l-85 86c-8 8-22 8-30 0z m-7-143c0 12-9 22-21 22-12 0-21-10-21-22l0-21c0-24 19-43 42-43l214 0c23 0 42 19 42 43l0 21c0 12-9 22-21 22-12 0-21-10-21-22l0-21-214 0z"/>
<glyph glyph-name="verticalized" unicode="&#41;" d="M107 405c-12 0-22-9-22-21 0-12 10-21 22-21l298 0c12 0 22 9 22 21 0 12-10 21-22 21z m0-85c-12 0-22-10-22-21 0-12 10-22 22-22l298 0c12 0 22 10 22 22 0 11-10 21-22 21z m-22-107c0 12 10 22 22 22l298 0c12 0 22-10 22-22 0-11-10-21-22-21l-298 0c-12 0-22 10-22 21z m22-64c-12 0-22-9-22-21 0-12 10-21 22-21l298 0c12 0 22 9 22 21 0 12-10 21-22 21z"/>
<glyph glyph-name="warning" unicode="&#42;" d="M256 414c16 0 30-14 30-30l0-128c0-16-14-30-30-30-16 0-30 14-30 30l0 128c0 16 14 30 30 30z m36-265c0-20-16-36-36-36-20 0-36 16-36 36 0 20 16 37 36 37 20 0 36-17 36-37z m-141 220c8 9 8 22-1 31-9 8-22 7-30-1-75-79-75-207 0-286 8-8 21-9 30-1 9 9 9 22 1 31-59 62-59 164 0 226z m241 30c-8 8-21 9-30 1-9-9-9-22-1-31 59-62 59-164 0-226-8-9-8-22 1-31 9-8 22-7 30 1 75 79 75 207 0 286z"/>
<glyph glyph-name="x" unicode="&#43;" d="M378 348c8 8 8 21 0 30-9 8-22 8-30 0l-92-92-92 92c-8 8-21 8-30 0-8-9-8-22 0-30l92-92-92-92c-8-8-8-21 0-30 9-8 22-8 30 0l92 92 92-92c8-8 21-8 30 0 8 9 8 22 0 30l-92 92z"/>
</font>
</defs>
</svg>
